<?xml version="1.0" encoding="UTF-8"?>
<svg width="311px" height="257px" viewBox="0 0 311 257" version="1.1" xmlns="http://www.w3.org/2000/svg" xmlns:xlink="http://www.w3.org/1999/xlink">
    <!-- Generator: Sketch 46.1 (44463) - http://www.bohemiancoding.com/sketch -->
    <title>logoNew</title>
    <desc>Created with Sketch.</desc>
    <defs></defs>
    <g id="Material-Design-Stickersheet" stroke="none" stroke-width="1" fill="none" fill-rule="evenodd">
        <g id="Artboard-2" transform="translate(-1910.000000, -2863.000000)">
            <g id="bundle-1" transform="translate(1717.000000, 1852.000000)">
                <g id="logoNew" transform="translate(193.000000, 998.000000)">
                    <g id="logo">
                        <g id="Group" fill="#202A34">
                            <path d="M136.88087,64.236831 L70.0324393,94.9691042 L0.141983675,62.8499385 L0.141983675,235.833248 L68.4353762,267.21169 L68.9677284,267.463852 L70.6028176,267.448089 L136.868196,237.220141 L206.23897,269.102907 L206.23897,96.1353567 L136.88087,64.236831 Z M66.8509906,258.370248 L6.26405364,230.522082 L6.26405364,73.7717154 L66.8509906,101.619886 L66.8509906,258.370248 Z M206.264377,96.0604568 L267.104816,65.3498349 L267.104816,238.917197 L206.264377,269.872106 L206.264377,96.0604568 Z M200.1169,258.18113 L139.935566,230.506318 L139.935566,73.7717154 L200.1169,101.430764 L200.1169,258.18113 Z M207.093766,199.139943 L202.697309,191.060592 C205.298352,189.633473 208.01449,188.137293 210.753644,186.572069 L215.288207,194.582358 C212.503013,196.147594 209.740842,197.712819 207.093766,199.139943 L207.093766,199.139943 Z M223.390574,208.370196 L218.809973,200.382923 L226.935357,195.779305 L231.46992,203.789595 L223.390574,208.370196 Z M126.967794,217.8997 C126.093104,217.140105 125.218413,216.357487 124.366745,215.551852 C122.939627,214.239822 121.535519,213.042882 120.154439,211.938013 L125.839903,204.71033 C127.405133,205.95331 129.016403,207.311379 130.650689,208.83057 C131.433301,209.567149 132.215913,210.280711 132.998531,210.971251 L126.967794,217.8997 Z M239.526255,217.09406 L235.152814,208.991692 C238.306297,207.288356 241.183557,205.815198 243.761583,204.664291 L247.559567,213.042876 C245.165685,214.124728 242.449554,215.52883 239.526255,217.09406 L239.526255,217.09406 Z M255.615901,221.283349 L253.198997,212.398363 C256.09928,211.615751 259.275773,210.856156 262.567362,210.211649 L264.316737,219.234741 C261.255332,219.856231 258.309017,220.54677 255.615901,221.283349 L255.615901,221.283349 Z M72.7832057,224.160615 L68.2256267,216.15032 C70.8036528,214.700178 74.5786138,212.881754 77.9852971,212.559497 L79.849761,221.605611 L78.8139425,221.743717 C77.8011524,221.835789 75.6604655,222.526335 72.7832057,224.160615 L72.7832057,224.160615 Z M113.087884,226.048102 C110.578914,224.690039 108.000887,223.677237 105.468894,222.986697 L107.862776,214.101711 C111.085309,214.976401 114.307841,216.265414 117.438302,217.945734 L113.087884,226.048102 Z M87.3766781,216.518609 C90.8984445,215.85108 93.9598491,215.52883 97.0442703,215.52883 L97.504638,220.132448 L97.3665265,224.736066 C94.5583224,224.713049 92.0493461,224.989266 89.1490696,225.564717 L87.3766781,216.518609 Z" id="Shape" stroke="#434F5E" stroke-width="0.2"></path>
                            <g id="path" transform="translate(164.000000, 0.000000)">
                                <g id="Group-2" transform="translate(35.661131, 31.785617) rotate(-9.000000) translate(-35.661131, -31.785617) translate(4.161131, 5.285617)">
                                    <path d="M26.8788252,3.85012373 C26.8788248,11.8443061 26.8788248,22.105573 26.8788252,22.105573 L14.0586836,31.3618988 L11.9994695,38.1204839 L26.8788252,31.3618988 L26.8788248,47.9926555 L22.5293353,53.3666786 L40.2158589,53.3666786 L35.611097,47.9926555 L35.6110967,31.3618988 L50.8303637,38.1204839 L49.0653221,31.3618988 L35.6110967,22.105573 C35.6110967,22.105573 35.6110972,8.89997412 35.611097,3.85012373 C35.6110967,-1.19972666 28.1104333,-3.15771461 26.8788252,3.85012373 Z" id="airplane_F" transform="translate(31.414917, 26.332872) scale(-1, 1) rotate(74.000000) translate(-31.414917, -26.332872) "></path>
                                </g>
                            </g>
                        </g>
                        <path d="M271.924526,206.925986 C284.798776,204.100786 293.127958,196.053814 296.912073,182.785067 C302.588244,162.881948 311.434117,132.236257 303.483261,103.963146 C295.532404,75.6900347 283.988321,65.6429078 271.924526,56.2811115 C263.881995,50.0399139 252.888024,44.3505446 238.942612,39.2130036" id="Path-3" stroke="#202A34" stroke-width="8" stroke-dasharray="11"></path>
                        <path d="M1.77635684e-15,194.502956 C2.94890808,194.479548 5.82760264,194.175297 8.47225412,193.613601 L10.3913858,202.787973 C7.13822713,203.466687 3.67443385,203.817749 0.117024537,203.86456 L1.77635684e-15,194.502956 Z M16.3125985,190.992352 C18.7700179,189.775344 20.9699917,188.254085 22.8891234,186.451977 L29.3252273,193.239137 C26.7273809,195.673154 23.7316677,197.756109 20.431704,199.394393 L16.3125985,190.992352 Z M27.8039682,180.086087 C29.1145927,177.815894 30.1911741,175.218053 31.0337184,172.409572 L40.0208578,175.077626 C38.9676789,178.588231 37.6102434,181.841383 35.9485573,184.74348 L27.8039682,180.086087 Z M33.7485834,163.18839 C34.8251648,159.935231 36.0421793,156.869311 37.3528038,153.967208 L45.8952654,157.805471 C44.7016595,160.42672 43.6016696,163.235201 42.6187042,166.160701 L33.7485834,163.18839 Z M189.689494,151.509788 C192.053298,150.667244 194.814974,149.426833 197.857492,147.928976 L202,156.307614 C198.583018,157.992703 195.493689,159.373535 192.849031,160.333098 L189.689494,151.509788 Z M180.047043,160.122463 C178.24493,159.139498 175.085393,158.062911 172.019466,157.056543 L174.991777,148.163013 C179.227901,149.590662 182.200212,150.620439 184.564015,151.907655 L180.047043,160.122463 Z M162.938711,153.897 C160.106828,152.843815 157.064303,151.603404 153.904761,150.152359 L157.836634,141.656702 C160.785542,143.014137 163.594023,144.160932 166.215272,145.143898 L162.938711,153.897 Z M41.8697759,145.143898 C43.6250721,142.148185 45.4505878,139.363106 47.3229084,136.812071 L54.8589962,142.358819 C53.1739076,144.652415 51.53563,147.133243 49.9675599,149.848102 L41.8697759,145.143898 Z M145.128262,145.588575 C142.4368,143.997103 139.651721,142.218398 136.84324,140.205656 L142.296372,132.599349 C144.847414,134.448267 147.375047,136.063142 149.832466,137.490785 L145.128262,145.588575 Z M53.6653963,129.112153 C55.9823886,126.631325 58.439814,124.290931 60.967447,122.184567 L66.9354707,129.393001 C64.8525094,131.148304 62.6759381,133.161045 60.5227693,135.478044 L53.6653963,129.112153 Z" id="Shape" fill="#202A34" transform="translate(101.000000, 163.024563) scale(1, -1) translate(-101.000000, -163.024563) "></path>
                    </g>
                </g>
            </g>
        </g>
    </g>
</svg>