<?xml version="1.0" encoding="UTF-8"?>
<svg width="234px" height="260px" viewBox="0 0 234 260" version="1.1" xmlns="http://www.w3.org/2000/svg" xmlns:xlink="http://www.w3.org/1999/xlink">
    <!-- Generator: Sketch 46.1 (44463) - http://www.bohemiancoding.com/sketch -->
    <title>user-superman</title>
    <desc>Created with Sketch.</desc>
    <defs></defs>
    <g id="Material-Design-Stickersheet" stroke="none" stroke-width="1" fill="none" fill-rule="evenodd">
        <g id="Artboard-2" transform="translate(-587.000000, -2236.000000)" fill="#2BBBAD">
            <g id="user-superman" transform="translate(704.000000, 2366.000000) scale(-1, 1) translate(-704.000000, -2366.000000) translate(587.000000, 2236.000000)">
                <path d="M138.458363,249.727489 C131.363372,251.211408 124.431591,249.931762 117.663021,245.888551 L107.788825,236.065313 L105.462238,233.750733 L107.672226,235.96072 C107.710915,235.99536 107.749781,236.030224 107.788825,236.065313 L94.0903394,222.43752 C100.137953,224.390079 108.88121,226.447944 123.329843,229.053412 C139.413223,231.932077 147.989604,232.080133 150.651681,237.568753 L138.458363,249.727489 Z M141.19893,250.91953 C144.240487,247.822143 147.614734,244.59491 151.569382,242.360075 C151.569382,240.407968 151.270359,238.845027 150.652363,237.57016 L140.414416,247.808107 C140.403151,247.808968 140.391887,247.809825 140.380625,247.810679 L150.651681,237.568753 C173.369176,223.015013 174.105378,227.123747 167.035253,231.439066 C154.599203,235.24051 147.737705,247.678572 140.948616,254.824571 L141.19893,250.91953 Z M131.053328,259.659196 C130.723096,259.797897 130.393331,259.912266 130.063525,260 C121.611483,258.146274 115.312882,251.486787 108.738372,243.124995 L121.604001,252.657745 C123.637705,255.305955 126.375848,257.915163 131.245128,259.80131 L131.053328,259.659196 Z M103.06739,235.729281 C102.295587,235.925968 102.054551,236.811979 102.344282,238.387312 L107.082234,241.897884 C106.824775,241.955627 106.43622,241.986252 105.84431,241.986252 C102.540994,241.986252 102.286893,240.709173 102.032792,238.296913 L95.5243367,233.591343 C95.2702355,231.604776 91.7128184,229.452035 95.5243367,229.452035 C98.0653489,229.452035 99.335855,230.871012 100.860462,232.857579 C101.608463,233.821516 102.343178,234.779934 103.06739,235.729281 Z M140.61687,260 L140.62631,259.85273 L204.366345,196.112695 L203.840858,195.587207 L203.950797,195.477268 L173.393682,164.920153 L173.333333,164.980503 L173.333333,164.928571 L86.8542868,164.928571 L86.8458688,164.920153 L86.8374509,164.928571 L86.6666667,164.928571 L86.6666667,165.099356 L61.738764,190.027258 L61.6959415,189.984436 L55.5676827,196.112695 L119.454988,260 L26,260 L26,150 L26,150 C26,143.924868 30.9248678,139 37,139 L37,139 L223,139 C229.075132,139 234,143.924868 234,150 L234,260 L140.61687,260 Z M168.827513,219.44447 C161.516963,213.697099 144.346398,209.34419 134.002094,207.768763 C115.452705,204.93081 97.9197208,200.957676 97.9197208,192.301919 C97.9197208,183.929957 111.132984,178.821642 125.870855,178.821642 C144.166143,178.821642 161.953229,187.619296 168.305759,194.856077 C172.117277,199.254904 172.371379,199.680597 176.182897,199.680597 C178.97801,199.680597 179.232112,197.977825 179.232112,197.835928 C179.232112,197.552132 178.97801,195.991258 178.723909,195.565565 L174.876415,178.629898 L192.316396,196.022205 L168.827513,219.44447 Z M169.821761,173.589062 C168.578605,173.677348 167.707982,174.097164 167.035253,174.848507 C165.002443,177.260768 164.748342,177.544563 162.969634,178.537846 C146.961257,175.2742 138.321815,173.855224 125.616754,173.855224 C103.324121,173.855224 88.3447008,178.432798 79.5034048,184.508838 L90.4972648,173.523249 L169.755768,173.523249 L169.821761,173.589062 Z M71.8945332,192.111985 C70.651495,194.100393 69.8975502,196.114518 69.6030089,198.076561 L67.7601725,196.243235 L71.8945332,192.111985 Z" id="Combined-Shape" transform="translate(130.000000, 199.500000) scale(-1, 1) translate(-130.000000, -199.500000) "></path>
                <path d="M87.0625,85.9269419 L87.0625,117.333333 C87.0625,119.542472 88.853361,121.333333 91.0625,121.333333 L91.0625,121.333333 L188.3125,121.333333 C189.969354,121.333333 191.3125,119.990188 191.3125,118.333333 L191.3125,29 C191.3125,27.3431458 189.969354,26 188.3125,26 L90.0625,26 C88.4056458,26 87.0625,27.3431458 87.0625,29 L87.0625,61.4063914 C85.7038665,60.927335 84.2418226,60.6666667 82.71875,60.6666667 C75.5217894,60.6666667 69.6875,66.4869649 69.6875,73.6666667 C69.6875,80.8463684 75.5217894,86.6666667 82.71875,86.6666667 C84.2418226,86.6666667 85.7038665,86.4059984 87.0625,85.9269419 Z M68,0 L196,0 C198.209139,-1.61026889e-14 200,1.790861 200,4 L200,126 L200,126 C200,128.209139 198.209139,130 196,130 L68,130 C64.1340068,130 61,126.865993 61,123 L61,7 L61,7 C61,3.13400675 64.1340068,1.59834986e-15 68,8.8817842e-16 L68,0 Z M113.125,60.6666667 L139.1875,60.6666667 L139.1875,69.3333333 L113.125,69.3333333 L113.125,60.6666667 Z M165.25,60.6666667 L182.625,60.6666667 L182.625,69.3333333 L165.25,69.3333333 L165.25,60.6666667 Z" id="Combined-Shape"></path>
                <path d="M147.002506,17 C142.283491,19.1341214 139,23.8831093 139,29.3989976 C139,36.9106238 145.089376,43 152.601002,43 C158.116891,43 162.865879,39.7165093 165,34.9974941 C163.292584,35.7696538 161.397241,36.1994988 159.401504,36.1994988 C151.889877,36.1994988 145.800501,30.1101226 145.800501,22.5984964 C145.800501,20.6027585 146.230346,18.7074163 147.002506,17 Z" id="Combined-Shape" transform="translate(152.000000, 30.000000) scale(-1, 1) translate(-152.000000, -30.000000) "></path>
                <path d="M17.6865071,138.885236 L11,138.885236 L11,138.885236 C4.92486775,138.885236 -7.43989126e-16,143.810104 0,149.885236 L0,149.885236 L0,260 L17.4351525,260 L17.4351525,141.234182 C17.4351525,140.428004 17.5218776,139.642082 17.6865071,138.885236 Z" id="Combined-Shape"></path>
            </g>
        </g>
    </g>
</svg>