<?xml version="1.0" encoding="UTF-8"?>
<svg width="230px" height="260px" viewBox="0 0 230 260" version="1.1" xmlns="http://www.w3.org/2000/svg" xmlns:xlink="http://www.w3.org/1999/xlink">
    <!-- Generator: Sketch 46.1 (44463) - http://www.bohemiancoding.com/sketch -->
    <title>chair_F</title>
    <desc>Created with Sketch.</desc>
    <defs></defs>
    <g id="Material-Design-Stickersheet" stroke="none" stroke-width="1" fill="none" fill-rule="evenodd">
        <g id="Artboard-2" transform="translate(-204.000000, -2240.000000)" fill="#2BBBAD">
            <path d="M250.628077,2478.31416 C236.067674,2480.03737 225,2488.64312 225,2499 L287,2499 C287,2487.40202 273.120828,2478 256,2478 C255.906737,2478 255.813571,2478.00028 255.720502,2478.00084 L213.432834,2320.18111 L208.603205,2321.4752 L250.628077,2478.31416 Z M361.568493,2364.307 C388.369638,2364.30701 405.421513,2347 417.98525,2347 C430.548986,2347 420.079206,2373.30665 416.589272,2385.25486 C413.099338,2397.20308 412.950912,2400.47556 412.950912,2400.47556 C412.950912,2400.47556 402.270957,2410.84991 396.48795,2420.53366 C390.704944,2430.21741 390.704941,2436 390.704941,2436 L335.205338,2436 C335.205338,2436 335.205339,2429.96507 331.197035,2420.53366 C327.18873,2411.10225 312.029783,2398.3515 312.029783,2398.3515 C312.029783,2398.3515 311.317824,2397.79029 308.052479,2385.25486 C304.774906,2372.67249 290.951826,2347 305.609528,2347 C320.26723,2347 334.767348,2364.307 361.568493,2364.307 Z M403.284352,2421.12109 C409.438076,2411.54472 417.279127,2401 428.166799,2401 C439.054471,2401 432.904385,2422.97615 424.329719,2440.0266 C415.755054,2457.07705 407.006357,2467.99962 363.199582,2468 C321.279752,2468.00036 310.447413,2457.34347 301.068869,2440.0266 C295.217276,2429.22202 289.82843,2401 298.671057,2401 C307.513683,2401 315.270663,2407.25776 322.773496,2417.64788 C330.27633,2428.038 330.276331,2442.02168 330.276331,2442.02168 L395.741967,2442.02168 C395.741967,2442.02168 397.130628,2430.69747 403.284352,2421.12109 Z M384.674026,2468 L392.764608,2468 C393.323031,2468 393.917803,2468.42638 394.099981,2468.95234 L404.072537,2497.74397 C404.256144,2498.27406 403.954567,2498.72013 403.40214,2498.74952 L394.770378,2499.20871 C394.226974,2499.23761 393.632296,2498.83539 393.462282,2498.30924 L383.976352,2468.95268 C383.803676,2468.41829 384.118698,2468 384.674026,2468 Z M333.193322,2468 L341.364906,2468 C341.907713,2468 342.218649,2468.42295 342.047717,2468.94469 L332.510511,2498.05531 C332.340716,2498.57357 331.755026,2499 331.204876,2499 L322.608709,2499 C322.067547,2499 321.75704,2498.57705 321.935247,2498.05531 L331.878338,2468.94469 C332.059335,2468.41478 332.645283,2468 333.193322,2468 Z M212,2318 C207.581722,2318 204,2314.41828 204,2310 C204,2305.58172 207.581722,2302 212,2302 C216.418278,2302 220,2305.58172 220,2310 C220,2314.41828 216.418278,2318 212,2318 Z M219.716679,2302.33494 L309.783321,2250.33494 L312.283321,2254.66506 L222.216679,2306.66506 L219.716679,2302.33494 Z M365,2292 L292,2292 C292,2272.11775 308.341606,2256 328.5,2256 C348.658394,2256 365,2272.11775 365,2292 Z M323.497699,2240 L327.502301,2240 C327.785156,2240 328,2240.22224 328,2240.49639 L328,2255.50361 C328,2255.77382 327.777173,2256 327.502301,2256 L323.497699,2256 C323.214844,2256 323,2255.77776 323,2255.50361 L323,2240.49639 C323,2240.22618 323.222827,2240 323.497699,2240 Z" id="chair_F"></path>
        </g>
    </g>
</svg>